<svg width="111" height="97" viewBox="0 0 111 97" fill="none" xmlns="http://www.w3.org/2000/svg">
<path d="M35.9065 46.4311C28.2263 46.4311 22 40.2048 22 32.524C22 28.6836 23.5569 25.2071 26.0729 22.6905C28.5896 20.1738 32.0667 18.6175 35.9065 18.6175H36.7313C36.7313 8.33509 45.0664 0 55.3488 0C65.6313 0 73.9663 8.33509 73.9663 18.6175H74.7912C82.4713 18.6175 88.6977 24.8433 88.6977 32.524C88.6977 36.3644 87.1408 39.8409 84.6247 42.3582C82.1081 44.8742 78.631 46.4311 74.7912 46.4311H35.9065V46.4311Z" fill="#BBECFF"/>
<path d="M55.3488 33.8384C55.9429 33.8384 56.4246 34.32 56.4246 34.9141V59.9243C56.4246 60.5184 55.9429 61 55.3488 61C54.7547 61 54.2731 60.5184 54.2731 59.9243V34.9141C54.2731 34.32 54.7547 33.8384 55.3488 33.8384V33.8384Z" fill="#72B8CE"/>
<path d="M55.3489 33.8384C55.6342 33.8384 55.9078 33.9517 56.1096 34.1535L61.9806 40.0246C62.4007 40.4447 62.4007 41.1258 61.9806 41.5459C61.5605 41.966 60.8794 41.966 60.4593 41.5459L55.3489 36.4355L50.2385 41.5459C49.8184 41.966 49.1373 41.966 48.7172 41.5459C48.2971 41.1258 48.2971 40.4447 48.7172 40.0246L54.5882 34.1535C54.6881 34.0536 54.8067 33.9743 54.9372 33.9203C55.0677 33.8662 55.2076 33.8384 55.3489 33.8384Z" fill="#72B8CE"/>
<path d="M7.6 91.2375C6.39667 91.2375 5.3675 91.0633 4.5125 90.715C3.6575 90.3667 3.00042 89.8125 2.54125 89.0525C2.09792 88.2767 1.87625 87.2554 1.87625 85.9887V74.5887H3.77625V86.0362C3.77625 87.2871 4.10875 88.1896 4.77375 88.7437C5.45458 89.2821 6.39667 89.5512 7.6 89.5512C8.86667 89.5512 9.84042 89.2821 10.5213 88.7437C11.2021 88.1896 11.5425 87.2871 11.5425 86.0362V74.5887H13.4425V85.9887C13.4425 87.2396 13.2129 88.2529 12.7538 89.0287C12.3104 89.8046 11.6533 90.3667 10.7825 90.715C9.91167 91.0633 8.85083 91.2375 7.6 91.2375ZM17.4135 96.2488V79.125H19.2422V79.98C19.4955 79.8217 19.8122 79.6633 20.1922 79.505C20.588 79.3308 21.0076 79.1883 21.451 79.0775C21.8943 78.9508 22.3218 78.8875 22.7335 78.8875C24.2376 78.8875 25.338 79.3704 26.0347 80.3362C26.7314 81.2862 27.0797 82.8142 27.0797 84.92C27.0797 86.4717 26.8976 87.7146 26.5335 88.6487C26.1851 89.5671 25.623 90.2321 24.8472 90.6437C24.0872 91.0396 23.0976 91.2375 21.8785 91.2375C21.3876 91.2375 20.8889 91.2058 20.3822 91.1425C19.8914 91.0792 19.5114 91.0238 19.2422 90.9762V96.2488H17.4135ZM21.7835 89.6225C22.6385 89.6225 23.3114 89.4642 23.8022 89.1475C24.3089 88.8308 24.6651 88.3321 24.871 87.6512C25.0768 86.9546 25.1797 86.0442 25.1797 84.92C25.1797 83.3208 24.9422 82.1967 24.4672 81.5475C23.9922 80.8825 23.3272 80.55 22.4722 80.55C22.0922 80.55 21.6964 80.5975 21.2847 80.6925C20.8889 80.7875 20.5089 80.9062 20.1447 81.0487C19.7805 81.1754 19.4797 81.31 19.2422 81.4525V89.385C19.4955 89.4167 19.8676 89.4642 20.3585 89.5275C20.8493 89.5908 21.3243 89.6225 21.7835 89.6225ZM30.4994 91V73.9712H32.3281V91H30.4994ZM40.8559 91.2375C39.5259 91.2375 38.4889 91.0079 37.7447 90.5487C37.0164 90.0896 36.5018 89.3929 36.2009 88.4587C35.9159 87.5246 35.7734 86.345 35.7734 84.92C35.7734 83.5583 35.9318 82.4342 36.2484 81.5475C36.5809 80.6608 37.1193 79.9958 37.8634 79.5525C38.6076 79.1092 39.6051 78.8875 40.8559 78.8875C42.1226 78.8875 43.128 79.1092 43.8722 79.5525C44.6164 79.9958 45.1468 80.6608 45.4634 81.5475C45.7959 82.4342 45.9622 83.5583 45.9622 84.92C45.9622 86.345 45.8118 87.5246 45.5109 88.4587C45.2259 89.3929 44.7114 90.0896 43.9672 90.5487C43.2389 91.0079 42.2018 91.2375 40.8559 91.2375ZM40.8559 89.6462C41.7743 89.6462 42.463 89.4879 42.9222 89.1712C43.3814 88.8387 43.6822 88.3242 43.8247 87.6275C43.983 86.9308 44.0622 86.0283 44.0622 84.92C44.0622 83.8275 43.9672 82.9567 43.7772 82.3075C43.5872 81.6583 43.2626 81.1912 42.8034 80.9062C42.3443 80.6212 41.6951 80.4787 40.8559 80.4787C40.0326 80.4787 39.3834 80.6212 38.9084 80.9062C38.4493 81.1912 38.1247 81.6583 37.9347 82.3075C37.7447 82.9567 37.6497 83.8275 37.6497 84.92C37.6497 86.0283 37.7209 86.9308 37.8634 87.6275C38.0218 88.3242 38.3305 88.8387 38.7897 89.1712C39.2489 89.4879 39.9376 89.6462 40.8559 89.6462ZM51.8513 91.2375C50.7588 91.2375 49.9276 90.9288 49.3576 90.3112C48.7876 89.6937 48.5026 88.7912 48.5026 87.6037C48.5026 86.8279 48.6372 86.1946 48.9063 85.7037C49.1755 85.2129 49.5792 84.8408 50.1176 84.5875C50.6717 84.3183 51.3526 84.1521 52.1601 84.0887L55.8176 83.7325V82.7112C55.8176 81.9037 55.6355 81.3337 55.2713 81.0012C54.923 80.6687 54.4005 80.5025 53.7038 80.5025C53.308 80.5025 52.833 80.5183 52.2788 80.55C51.7405 80.5817 51.2022 80.6212 50.6638 80.6687C50.1255 80.7162 49.6505 80.7637 49.2388 80.8112L49.1438 79.41C49.5238 79.3308 49.983 79.2517 50.5213 79.1725C51.0597 79.0933 51.6217 79.03 52.2076 78.9825C52.7934 78.9192 53.3317 78.8875 53.8226 78.8875C54.7251 78.8875 55.4613 79.03 56.0313 79.315C56.6013 79.5842 57.013 80.0037 57.2663 80.5737C57.5355 81.1279 57.6701 81.8404 57.6701 82.7112V88.72C57.7017 89.0683 57.8363 89.3217 58.0738 89.48C58.3272 89.6383 58.6438 89.7412 59.0238 89.7887L58.9526 91.2375C58.6042 91.2375 58.2876 91.2138 58.0026 91.1663C57.7176 91.1346 57.4484 91.0792 57.1951 91C56.9892 90.9208 56.7913 90.8258 56.6013 90.715C56.4272 90.6042 56.253 90.4696 56.0788 90.3112C55.778 90.4379 55.3901 90.5725 54.9151 90.715C54.4559 90.8575 53.9572 90.9762 53.4188 91.0713C52.8963 91.1821 52.3738 91.2375 51.8513 91.2375ZM52.1601 89.6937C52.5876 89.6937 53.0309 89.6542 53.4901 89.575C53.9492 89.4958 54.3847 89.4008 54.7963 89.29C55.208 89.1792 55.5484 89.0762 55.8176 88.9812V85.11L52.3738 85.4425C51.6613 85.5058 51.1467 85.7117 50.8301 86.06C50.5292 86.4083 50.3788 86.9071 50.3788 87.5562C50.3788 88.2212 50.5292 88.7437 50.8301 89.1237C51.1309 89.5037 51.5742 89.6937 52.1601 89.6937ZM65.3323 91.2375C64.8573 91.2375 64.406 91.1821 63.9785 91.0713C63.551 90.9762 63.1552 90.8021 62.791 90.5487C62.4427 90.2954 62.134 89.9471 61.8648 89.5037C61.5956 89.0446 61.3898 88.4587 61.2473 87.7462C61.1048 87.0337 61.0335 86.1708 61.0335 85.1575C61.0335 83.7483 61.1998 82.5846 61.5323 81.6662C61.8648 80.7321 62.3952 80.0354 63.1235 79.5762C63.8519 79.1171 64.8177 78.8875 66.021 78.8875C66.4802 78.8875 66.9948 78.9271 67.5648 79.0063C68.1348 79.0696 68.5781 79.1329 68.8948 79.1962V73.9712H70.7473V91H68.9185V90.2163C68.6652 90.3587 68.3327 90.5092 67.921 90.6675C67.5252 90.8258 67.0977 90.9604 66.6385 91.0713C66.1952 91.1821 65.7598 91.2375 65.3323 91.2375ZM65.5698 89.575C65.9815 89.575 66.3931 89.5275 66.8048 89.4325C67.2323 89.3375 67.6281 89.2267 67.9923 89.1C68.3565 88.9575 68.6573 88.8308 68.8948 88.72V80.7637C68.7048 80.7321 68.4435 80.7004 68.111 80.6687C67.7785 80.6212 67.4302 80.5817 67.066 80.55C66.7177 80.5183 66.401 80.5025 66.116 80.5025C65.3085 80.5025 64.6752 80.6767 64.216 81.025C63.7569 81.3733 63.4244 81.8958 63.2185 82.5925C63.0285 83.2733 62.9335 84.1283 62.9335 85.1575C62.9335 86.1075 63.0048 86.8754 63.1473 87.4612C63.2898 88.0312 63.4798 88.4746 63.7173 88.7912C63.9706 89.0921 64.2556 89.2979 64.5723 89.4087C64.889 89.5196 65.2215 89.575 65.5698 89.575ZM80.6827 91V80.7162H79.1865V79.125H80.6827V78.08C80.6827 76.94 80.7856 76.0533 80.9915 75.42C81.1973 74.7867 81.5377 74.3512 82.0127 74.1137C82.4877 73.8604 83.1131 73.7337 83.889 73.7337C84.079 73.7337 84.3402 73.7417 84.6727 73.7575C85.0052 73.7733 85.3298 73.7971 85.6465 73.8287C85.9631 73.8446 86.1848 73.8683 86.3115 73.9L86.2877 75.4437C86.0027 75.4279 85.6544 75.42 85.2427 75.42C84.8469 75.4042 84.5223 75.3962 84.269 75.3962C83.8256 75.3962 83.4773 75.4754 83.224 75.6337C82.9706 75.7762 82.7885 76.0454 82.6777 76.4412C82.5827 76.8371 82.5352 77.3912 82.5352 78.1037V79.125H85.9552V80.7162H82.5352V91H80.6827ZM88.4655 91V79.125H90.2943V91H88.4655ZM88.4655 76.5125V74.375H90.2943V76.5125H88.4655ZM94.2456 91V73.9712H96.0743V91H94.2456ZM104.246 91.2375C103.058 91.2375 102.116 91.0079 101.42 90.5487C100.739 90.0896 100.248 89.4087 99.9471 88.5062C99.6463 87.6037 99.4959 86.4796 99.4959 85.1337C99.4959 83.6296 99.7017 82.4262 100.113 81.5237C100.525 80.6054 101.103 79.9404 101.847 79.5287C102.591 79.1012 103.47 78.8875 104.483 78.8875C106.067 78.8875 107.262 79.3308 108.07 80.2175C108.877 81.0883 109.281 82.4975 109.281 84.445L109.186 85.8462H101.372C101.388 87.0812 101.618 88.0154 102.061 88.6487C102.504 89.2821 103.304 89.5987 104.46 89.5987C104.903 89.5987 105.386 89.5908 105.908 89.575C106.447 89.5433 106.977 89.5117 107.5 89.48C108.022 89.4483 108.465 89.4167 108.83 89.385L108.877 90.8337C108.497 90.8971 108.03 90.9604 107.476 91.0238C106.938 91.0871 106.383 91.1346 105.813 91.1663C105.243 91.2138 104.721 91.2375 104.246 91.2375ZM101.372 84.35H107.428C107.428 82.8933 107.191 81.88 106.716 81.31C106.257 80.7242 105.513 80.4312 104.483 80.4312C103.486 80.4312 102.718 80.7321 102.18 81.3337C101.641 81.9354 101.372 82.9408 101.372 84.35Z" fill="black"/>
</svg>
